<svg width="22" height="22" fill="none" xmlns="http://www.w3.org/2000/svg"><path d="M6.8017 14.245a.9166.9166 0 0 0 0 1.2925.9162.9162 0 0 0 .6508.2711.9155.9155 0 0 0 .6508-.2711.9168.9168 0 0 0 0-1.2925.918.918 0 0 0-.6508-.2712.9174.9174 0 0 0-.6508.2712Zm0-7.7825a.9167.9167 0 0 0 0 1.2925.9167.9167 0 0 0 1.3016 0 .9167.9167 0 0 0 0-1.2925.9168.9168 0 0 0-1.3016 0Zm4.5375 9.1667a.9168.9168 0 0 0-.8991 1.0955.9168.9168 0 0 0 1.6612.3304.916.916 0 0 0 .1545-.5093.9184.9184 0 0 0-.0561-.3649.918.918 0 0 0-.4988-.5237.9178.9178 0 0 0-.3617-.0739v.0459Zm-5.5-5.5a.9168.9168 0 0 0-.847.5658.9169.9169 0 0 0 .6681 1.2499.9163.9163 0 0 0 .941-.3898.9167.9167 0 0 0 .1545-.5093.9167.9167 0 0 0-.9166-.9625v.0459Zm5.5-5.5a.9166.9166 0 1 0 .9166.9166.9183.9183 0 0 0-.0561-.3649.918.918 0 0 0-.4988-.5237.9165.9165 0 0 0-.3617-.0739v.0459Zm3.245 1.8791a.9161.9161 0 0 0-.2012.9997.9164.9164 0 0 0 1.3572.4122.9164.9164 0 0 0 .1365-1.4119.9168.9168 0 0 0-1.2925-.0458v.0458Zm5.775 0A10.0831 10.0831 0 0 0 11.3351.936a10.0833 10.0833 0 1 0 1.8282 20.0007 3.5482 3.5482 0 0 0 2.2917-1.5125 3.8509 3.8509 0 0 0 .5592-2.9242 5.1752 5.1752 0 0 1-.0917-.9167 4.5832 4.5832 0 0 1 2.75-4.18 3.5184 3.5184 0 0 0 1.8883-2.0625 3.6665 3.6665 0 0 0-.2016-2.8508v.0183ZM18.8008 8.745a1.7405 1.7405 0 0 1-.9166.9992 6.4165 6.4165 0 0 0-3.795 5.8391c.0013.4309.0443.8607.1283 1.2834a1.9794 1.9794 0 0 1-.2842 1.5125 1.6407 1.6407 0 0 1-1.1091.7333 7.9987 7.9987 0 0 1-1.485.1375 8.2503 8.2503 0 0 1-8.25-8.5067A8.2959 8.2959 0 0 1 10.8624 2.75h.4675a8.2498 8.2498 0 0 1 7.3883 4.5833 1.833 1.833 0 0 1 .0825 1.3934v.0183Zm-7.4616 1.3383a.9169.9169 0 0 0-.6482 1.5649.9162.9162 0 0 0 1.4103-.1389.9163.9163 0 0 0-.114-1.1575.9165.9165 0 0 0-.6481-.2685Z" fill="#006AFF"/></svg>