<svg width="18" height="18" fill="none" xmlns="http://www.w3.org/2000/svg"><path d="M1.5858 1.5858A2 2 0 0 0 1 3v2a2 2 0 0 0 2 2h2a2 2 0 0 0 2-2V3a2 2 0 0 0-2-2H3a2 2 0 0 0-1.4142.5858ZM11.5858 1.5858A1.9999 1.9999 0 0 0 11 3v2a1.9999 1.9999 0 0 0 2 2h2a2 2 0 0 0 2-2V3a1.9999 1.9999 0 0 0-2-2h-2a2 2 0 0 0-1.4142.5858ZM1.5858 11.5858A2 2 0 0 0 1 13v2a2 2 0 0 0 2 2h2a1.9999 1.9999 0 0 0 2-2v-2a2 2 0 0 0-2-2H3a1.9999 1.9999 0 0 0-1.4142.5858ZM11.5858 11.5858A2 2 0 0 0 11 13v2a2 2 0 0 0 2 2h2a2 2 0 0 0 2-2v-2a2 2 0 0 0-2-2h-2a2 2 0 0 0-1.4142.5858Z" stroke="#006AFF" stroke-width="2" stroke-linecap="round" stroke-linejoin="round"/></svg>