<svg width="14" height="22" fill="none" xmlns="http://www.w3.org/2000/svg"><path d="M13.83 8.44A.9999.9999 0 0 0 13 8h-3V6h2.2a1 1 0 0 0 1-1V1a1.0002 1.0002 0 0 0-1-1H9a5.8 5.8 0 0 0-5.8 5.8V8H1a1 1 0 0 0-1 1v4a1 1 0 0 0 1 1h2.2v7a1 1 0 0 0 1 1H9a1.0002 1.0002 0 0 0 1-1v-7h1.4a1 1 0 0 0 .93-.63l1.6-4a.9998.9998 0 0 0-.1-.93ZM10.72 12H9a1.0002 1.0002 0 0 0-1 1v7H5.2v-7a1 1 0 0 0-1-1H2v-2h2.2a1 1 0 0 0 1-1V5.8A3.81 3.81 0 0 1 9 2h2.2v2h-.8a2.4999 2.4999 0 0 0-1.92.52A1.7401 1.7401 0 0 0 8 5.8V9a1 1 0 0 0 1 1h2.52l-.8 2Z" fill="#006AFF"/></svg>