<svg width="12" height="20" fill="none" xmlns="http://www.w3.org/2000/svg"><path d="M11.6915 7.8666a.833.833 0 0 0-.6917-.3667h-2.5V5.8332h1.8334A.8333.8333 0 0 0 11.1665 5V1.6666a.8333.8333 0 0 0-.8333-.8333H7.6665a4.8334 4.8334 0 0 0-4.8333 4.8333v1.8333H.9998a.8333.8333 0 0 0-.8333.8333v3.3334a.833.833 0 0 0 .8333.8333h1.8334v5.8334a.8333.8333 0 0 0 .8333.8333h4a.8333.8333 0 0 0 .8333-.8333v-5.8334h1.1667a.8332.8332 0 0 0 .775-.525l1.3333-3.3333a.8328.8328 0 0 0-.0833-.775Zm-2.5917 2.9667H7.6665a.8332.8332 0 0 0-.8333.8333v5.8333H4.4998v-5.8333a.8335.8335 0 0 0-.8333-.8333H1.8332V9.1666h1.8333a.8333.8333 0 0 0 .8333-.8334V5.6666a3.175 3.175 0 0 1 3.1667-3.1667h1.8333v1.6667h-.6666a2.0834 2.0834 0 0 0-1.6.4333 1.4501 1.4501 0 0 0-.4 1.0667v2.6666a.8334.8334 0 0 0 .8333.8334h2.1l-.6667 1.6667Z" fill="#fff"/></svg>