<svg width="18" height="18" fill="none" xmlns="http://www.w3.org/2000/svg"><path d="M13.4498 3.55a.9999.9999 0 0 0-.9807 1.1952.9996.9996 0 0 0 1.3634.7288 1.0003 1.0003 0 0 0 .6173-.924.9997.9997 0 0 0-1-1Zm3.8334 2.0168a6.323 6.323 0 0 0-.3834-2.025 4.1164 4.1164 0 0 0-.9666-1.475 3.9177 3.9177 0 0 0-1.475-.9584 6.0839 6.0839 0 0 0-2.025-.3917c-.8834-.05-1.1667-.05-3.4334-.05-2.2666 0-2.55 0-3.4333.05a6.0835 6.0835 0 0 0-2.025.3917 3.9835 3.9835 0 0 0-1.475.9583 3.9167 3.9167 0 0 0-.9583 1.475 6.0834 6.0834 0 0 0-.3917 2.025c-.05.8834-.05 1.1667-.05 3.4334 0 2.2666 0 2.55.05 3.4333a6.0833 6.0833 0 0 0 .3917 2.025 3.916 3.916 0 0 0 .9583 1.475c.4141.4254.918.7528 1.475.9583a6.0815 6.0815 0 0 0 2.025.3917c.8833.05 1.1667.05 3.4333.05 2.2667 0 2.55 0 3.4334-.05a6.0819 6.0819 0 0 0 2.025-.3917 3.9159 3.9159 0 0 0 1.475-.9583 4.0422 4.0422 0 0 0 .9666-1.475 6.323 6.323 0 0 0 .3834-2.025c0-.8833.05-1.1667.05-3.4333 0-2.2667 0-2.55-.05-3.4333Zm-1.5 6.7666a4.6747 4.6747 0 0 1-.2834 1.55 2.5475 2.5475 0 0 1-.625.9583 2.6573 2.6573 0 0 1-.9583.625 4.6747 4.6747 0 0 1-1.55.2834c-.8333.0416-1.1417.05-3.3333.05-2.1917 0-2.5 0-3.3334-.05a4.7749 4.7749 0 0 1-1.6166-.25 2.7254 2.7254 0 0 1-.9167-.625 2.4998 2.4998 0 0 1-.6167-.9584 4.6161 4.6161 0 0 1-.3333-1.5833c0-.8333-.05-1.1417-.05-3.3333 0-2.1917 0-2.5.05-3.3333a4.6168 4.6168 0 0 1 .2917-1.5834 2.5 2.5 0 0 1 .6583-.9167c.2532-.2865.566-.514.9167-.6666a4.7748 4.7748 0 0 1 1.5833-.2833c.8333 0 1.1417-.05 3.3333-.05 2.1917 0 2.5 0 3.3334.05a4.6754 4.6754 0 0 1 1.55.2833c.3787.1405.7185.369.9916.6666.2731.256.4865.569.625.9167a4.6764 4.6764 0 0 1 .2834 1.5834c.0416.8333.05 1.1416.05 3.3333 0 2.1916-.0084 2.5-.05 3.3333ZM8.9998 4.7251A4.275 4.275 0 1 0 13.2832 9a4.2662 4.2662 0 0 0-1.2526-3.0283A4.2671 4.2671 0 0 0 8.9998 4.725Zm0 7.05a2.7752 2.7752 0 0 1-2.7216-3.3164 2.775 2.775 0 1 1 2.7216 3.3164Z" fill="#fff"/></svg>