<svg width="20" height="20" fill="none" xmlns="http://www.w3.org/2000/svg"><path d="M10 5a5 5 0 1 0 0 9.9999A5 5 0 0 0 10 5Zm0 8a2.9996 2.9996 0 0 1-2.7716-1.8519 3.0003 3.0003 0 0 1 2.1863-4.0905 3.0003 3.0003 0 0 1 3.0797 1.2757 2.9996 2.9996 0 0 1-.3731 3.788A3 3 0 0 1 10 13Zm5-9a1.0002 1.0002 0 0 0-.9808 1.195.9998.9998 0 0 0 1.3635.7289A1.0003 1.0003 0 0 0 16 5a1.0002 1.0002 0 0 0-1-1Zm4.94 2.24a7.5108 7.5108 0 0 0-.48-2.5 5.5597 5.5597 0 0 0-3.2-3.2 7.5097 7.5097 0 0 0-2.5-.48C12.79 0 12.47 0 10 0 7.53 0 7.21 0 6.24.06a7.51 7.51 0 0 0-2.5.48 5.56 5.56 0 0 0-3.2 3.2 7.51 7.51 0 0 0-.48 2.5C0 7.22 0 7.54 0 10s0 2.78.06 3.76a7.5097 7.5097 0 0 0 .48 2.5 5.5603 5.5603 0 0 0 3.2 3.2c.8.3011 1.6454.4634 2.5.48 1 0 1.29.06 3.76.06 2.47 0 2.79 0 3.76-.06a7.5105 7.5105 0 0 0 2.5-.48 5.56 5.56 0 0 0 3.2-3.2 7.5105 7.5105 0 0 0 .48-2.5c0-1 .06-1.3.06-3.76s0-2.78-.06-3.76Zm-2 7.43a6.0003 6.0003 0 0 1-.35 1.86 3.4003 3.4003 0 0 1-.82 1.25 3.2604 3.2604 0 0 1-1.25.81 5.7495 5.7495 0 0 1-1.87.36c-.94 0-1.23.05-3.66.05H6.34a6 6 0 0 1-1.87-.35 3.3997 3.3997 0 0 1-1.25-.82 3.26 3.26 0 0 1-.81-1.25 5.7398 5.7398 0 0 1-.36-1.86V6.38a5.86 5.86 0 0 1 .36-1.87 3.3 3.3 0 0 1 .81-1.24 3.26 3.26 0 0 1 1.25-.81 5.7502 5.7502 0 0 1 1.87-.36C7.28 2 7.57 2 10 2h3.66a5.8699 5.8699 0 0 1 1.88.36 3.2996 3.2996 0 0 1 1.24.81c.3628.3486.6401.7764.81 1.25A5.7392 5.7392 0 0 1 18 6.33c0 1 .05 1.25.05 3.67S18 12.71 18 13.67h-.06Z" fill="#006AFF"/></svg>