<svg width="20" height="20" viewBox="0 0 20 20" fill="none" xmlns="http://www.w3.org/2000/svg">
<path d="M15 5H17C17.5304 5 18.0391 5.21071 18.4142 5.58579C18.7893 5.96086 19 6.46957 19 7V13C19 13.5304 18.7893 14.0391 18.4142 14.4142C18.0391 14.7893 17.5304 15 17 15H15V19L11 15H7C6.73733 15.0003 6.47719 14.9486 6.23453 14.8481C5.99187 14.7475 5.77148 14.6 5.586 14.414M5.586 14.414L9 11H13C13.5304 11 14.0391 10.7893 14.4142 10.4142C14.7893 10.0391 15 9.53043 15 9V3C15 2.46957 14.7893 1.96086 14.4142 1.58579C14.0391 1.21071 13.5304 1 13 1H3C2.46957 1 1.96086 1.21071 1.58579 1.58579C1.21071 1.96086 1 2.46957 1 3V9C1 9.53043 1.21071 10.0391 1.58579 10.4142C1.96086 10.7893 2.46957 11 3 11H5V15L5.586 14.414Z" stroke="#006AFF" stroke-width="2" stroke-linecap="round" stroke-linejoin="round"/>
</svg>
