<svg width="21" height="20" fill="none" xmlns="http://www.w3.org/2000/svg"><path d="M17.364 3.636A9.0008 9.0008 0 0 1 20 10a9.0003 9.0003 0 0 1-2.636 6.364m0 0-2.829-2.829m2.829 2.829L20 19M14.536 6.464A5.0011 5.0011 0 0 1 16.0009 10a5.001 5.001 0 0 1-1.4649 3.536l-2.829-2.829m0 0a.9996.9996 0 0 0 .2308-1.098 1 1 0 0 0-1.6448-.316m1.414 1.414-1.414-1.414m-2.829 4.243a4.978 4.978 0 0 1-1.414-2.83m-1.414 5.658a9.0001 9.0001 0 0 1-2.167-9.238m7.824 2.167L2 1" stroke="#006AFF" stroke-width="2" stroke-linecap="round" stroke-linejoin="round"/></svg>