<svg width="18" height="18" fill="none" xmlns="http://www.w3.org/2000/svg"><path d="M15.2001 9.8333c-.1833 0-.375-.0583-.5583-.1a7.8656 7.8656 0 0 1-1.0917-.325 1.6667 1.6667 0 0 0-2.0667.8333l-.1833.375A10.1484 10.1484 0 0 1 9.0834 8.95a10.1499 10.1499 0 0 1-1.6666-2.2167l.35-.2333A1.6667 1.6667 0 0 0 8.6 4.4333a8.61 8.61 0 0 1-.325-1.0917 6.185 6.185 0 0 1-.1-.5666A2.5 2.5 0 0 0 5.675.7h-2.5a2.5 2.5 0 0 0-2.5 2.8416 15.8334 15.8334 0 0 0 13.7667 13.7167h.3166a2.5006 2.5006 0 0 0 1.6667-.6333 2.4996 2.4996 0 0 0 .8333-1.875v-2.5a2.5 2.5 0 0 0-2.0583-2.4167Zm.4167 5a.8332.8332 0 0 1-.2834.625.8822.8822 0 0 1-.6833.2083A14.1662 14.1662 0 0 1 2.3917 3.35a.9084.9084 0 0 1 .2084-.6834.8335.8335 0 0 1 .625-.2833h2.5a.8333.8333 0 0 1 .8333.6583 9.029 9.029 0 0 0 .125.675 9.266 9.266 0 0 0 .3834 1.2917L5.9 5.55a.8333.8333 0 0 0-.4084 1.1083 12.0747 12.0747 0 0 0 5.8334 5.8333.8328.8328 0 0 0 .6333 0 .832.832 0 0 0 .475-.4333l.5167-1.1667c.4308.1541.8705.2821 1.3167.3834.2222.05.4472.0916.6749.125a.8331.8331 0 0 1 .6584.8333l.0167 2.6Z" fill="#fff"/></svg>