<svg width="32" height="32" viewBox="0 0 32 32" fill="none" xmlns="http://www.w3.org/2000/svg">
<path d="M20.7203 15.0533L13.1736 7.52001C13.0497 7.39504 12.9022 7.29584 12.7397 7.22815C12.5773 7.16046 12.403 7.12561 12.227 7.12561C12.051 7.12561 11.8767 7.16046 11.7142 7.22815C11.5517 7.29584 11.4043 7.39504 11.2803 7.52001C11.032 7.76982 10.8926 8.10776 10.8926 8.46001C10.8926 8.81226 11.032 9.15019 11.2803 9.40001L17.8803 16.0667L11.2803 22.6667C11.032 22.9165 10.8926 23.2544 10.8926 23.6067C10.8926 23.9589 11.032 24.2969 11.2803 24.5467C11.4038 24.6727 11.551 24.7729 11.7135 24.8415C11.876 24.9102 12.0506 24.9459 12.227 24.9467C12.4034 24.9459 12.5779 24.9102 12.7404 24.8415C12.9029 24.7729 13.0501 24.6727 13.1736 24.5467L20.7203 17.0133C20.8556 16.8885 20.9637 16.7369 21.0375 16.5683C21.1114 16.3996 21.1495 16.2175 21.1495 16.0333C21.1495 15.8492 21.1114 15.6671 21.0375 15.4984C20.9637 15.3297 20.8556 15.1782 20.7203 15.0533Z" fill="white"/>
</svg>
