<svg width="24" height="24" fill="none" xmlns="http://www.w3.org/2000/svg"><path fill-rule="evenodd" clip-rule="evenodd" d="M16.8688 15.4575c2.4438-3.1385 2.223-7.6791-.6621-10.5643-3.1242-3.1242-8.1896-3.1242-11.3138 0-3.1241 3.1242-3.1241 8.1895 0 11.3137 2.8852 2.8852 7.4259 3.1059 10.5644.6622a.9374.9374 0 0 0 .0423.0449l4.2426 4.2427c.3905.3905 1.0237.3905 1.4142 0 .3905-.3906.3905-1.0237 0-1.4143l-4.2426-4.2426a1.116 1.116 0 0 0-.045-.0423Zm-2.0764-9.15c2.3432 2.343 2.3432 6.142 0 8.4852-2.3431 2.3431-6.142 2.3431-8.4852 0-2.3432-2.3432-2.3432-6.1421 0-8.4853 2.3431-2.3431 6.1421-2.3431 8.4852 0Z" fill="#0094FF"/></svg>