<svg width="24" height="24" fill="none" xmlns="http://www.w3.org/2000/svg"><path d="M13.675 4.317c-.426-1.756-2.924-1.756-3.35 0-.276 1.135-1.576 1.673-2.572 1.065-1.544-.94-3.31.827-2.37 2.37a1.724 1.724 0 0 1-1.066 2.573c-1.756.426-1.756 2.924 0 3.35a1.7248 1.7248 0 0 1 1.1855 1.0156 1.724 1.724 0 0 1-.1205 1.5564c-.94 1.544.827 3.31 2.37 2.37a1.7243 1.7243 0 0 1 2.2073.351c.1765.2062.3018.4512.3657.715.426 1.756 2.924 1.756 3.35 0a1.7248 1.7248 0 0 1 1.0156-1.1855 1.7236 1.7236 0 0 1 1.5564.1205c1.544.94 3.31-.827 2.37-2.37a1.7245 1.7245 0 0 1-.1207-1.5573 1.7231 1.7231 0 0 1 1.1867-1.0157c1.756-.426 1.756-2.924 0-3.35a1.7243 1.7243 0 0 1-1.3115-1.8082 1.7236 1.7236 0 0 1 .2465-.7638c.94-1.544-.827-3.31-2.37-2.37a1.7242 1.7242 0 0 1-2.573-1.066Z" stroke="#fff" stroke-width="2" stroke-linecap="round" stroke-linejoin="round"/><path d="M14.1213 14.1213a3 3 0 1 0-4.2428-4.2427 3 3 0 0 0 4.2428 4.2427Z" stroke="#fff" stroke-width="2" stroke-linecap="round" stroke-linejoin="round"/></svg>