<svg width="20" height="20" fill="none" xmlns="http://www.w3.org/2000/svg"><path d="M6.684 11.342C6.886 10.938 7 10.482 7 10c0-.482-.114-.938-.316-1.342m0 2.684a3.0003 3.0003 0 0 1-3.3725 1.5777A3 3 0 1 1 6.6841 8.658m0 2.684 6.632 3.316m-6.632-6 6.632-3.316m0 9.316a3.0007 3.0007 0 0 0 3.6329 4.1888 3.001 3.001 0 0 0 1.8979-3.7957 3.0008 3.0008 0 0 0-5.5308-.3931Zm0-9.316a2.9995 2.9995 0 0 0 1.7349 1.5045 3.0004 3.0004 0 1 0-1.7349-1.5045Z" stroke="#333" stroke-width="2" stroke-linecap="round" stroke-linejoin="round"/></svg>