<svg width="20" height="18" fill="none" xmlns="http://www.w3.org/2000/svg"><path d="M18.5541 1.0232A1.707 1.707 0 0 0 16.8223.753L1.8883 6.7824a1.7026 1.7026 0 0 0 .087 3.182l3.0208 1.0506L6.68 16.583a.8326.8326 0 0 0 .0986.2104c.0065.01.0156.0174.0225.0271a.8228.8228 0 0 0 .1761.1798.791.791 0 0 0 .0582.0414.8222.8222 0 0 0 .259.1135l.0098.0008.0056.0024a.851.851 0 0 0 .1685.0171c.0054 0 .0103-.0026.0157-.0027a.8273.8273 0 0 0 .2509-.0436c.0188-.0064.035-.0171.0532-.0249a.8288.8288 0 0 0 .1702-.0954l.1269-.1069 2.2518-2.4861 3.3585 2.6017a1.686 1.686 0 0 0 1.0344.3556 1.7113 1.7113 0 0 0 1.6732-1.3607l2.7189-13.347a1.6913 1.6913 0 0 0-.5778-1.6424ZM7.8086 11.2802a.8282.8282 0 0 0-.227.4216l-.258 1.2533-.6533-2.1609 3.3877-1.7641-2.2494 2.2501ZM14.7268 15.7l-3.969-3.0745a.8342.8342 0 0 0-1.1279.0993l-.7212.796.2549-1.2387 5.9025-5.9025a.8334.8334 0 0 0 .0831-1.0823.8331.8331 0 0 0-1.0572-.2458L5.621 9.462 2.5172 8.3262l14.9821-5.9937L14.7268 15.7Z" fill="#fff"/></svg>