<svg width="22" height="22" fill="none" xmlns="http://www.w3.org/2000/svg"><path d="M21.2647 1.4278a2.048 2.048 0 0 0-2.0781-.3242L1.2656 8.3389a2.043 2.043 0 0 0 .1046 3.8184l3.625 1.2607 2.0205 6.6817a.9972.9972 0 0 0 .1183.2523c.0078.012.0187.021.027.0326a.9876.9876 0 0 0 .2114.2158.96.96 0 0 0 .0698.0497c.095.063.2.109.3107.1361l.0119.001.0067.0029c.0665.0135.1342.0204.2021.0205.0066 0 .0124-.0032.0188-.0033a.9921.9921 0 0 0 .3011-.0523c.0226-.0077.042-.0205.0639-.0298a.994.994 0 0 0 .2043-.1146l.1522-.1282 2.7021-2.9833 4.0303 3.122a2.0231 2.0231 0 0 0 1.2412.4268 2.054 2.054 0 0 0 2.0079-1.6328L21.958 3.3985a2.0293 2.0293 0 0 0-.6933-1.9707ZM8.3702 13.7364a.9936.9936 0 0 0-.2725.5058l-.3095 1.504-.784-2.593 4.0652-2.117-2.6992 2.7002Zm8.3017 5.3037-4.7627-3.6895a1.0009 1.0009 0 0 0-.7-.2051 1.001 1.001 0 0 0-.6535.3242l-.8654.9552.3058-1.4864 7.083-7.083a.9997.9997 0 0 0-1.1689-1.5938L5.7449 11.5544l-3.7244-1.3629L19.999 2.9991 16.6719 19.04Z" fill="#006AFF"/></svg>