<svg width="15" height="23" fill="none" xmlns="http://www.w3.org/2000/svg"><path d="m14.4336 19.5083-.9619-2.8535a1.0014 1.0014 0 0 0-.5584-.6015 1.0004 1.0004 0 0 0-.8205.0185 3.7635 3.7635 0 0 1-1.209.249.9362.9362 0 0 1-.6592-.165 1.2004 1.2004 0 0 1-.2393-.8076v-4.3477h3.0167a1.0009 1.0009 0 0 0 .7073-.2927.9993.9993 0 0 0 .2927-.7073V6.0952a.9985.9985 0 0 0-.6172-.924 1 1 0 0 0-.3828-.076H10V1.0005a.9991.9991 0 0 0-1-1H6.0703a1.148 1.148 0 0 0-1.1377 1.04A5.0934 5.0934 0 0 1 1.6523 5.598a.9992.9992 0 0 0-.661.9405v3.584a.999.999 0 0 0 .6171.924c.1214.0502.2515.076.3828.076h1.0244v4.5351a6.411 6.411 0 0 0 1.8867 4.4785 6.9038 6.9038 0 0 0 4.9747 1.8633c.0537 0 .1084 0 .1631-.001 1.5459-.0254 3.6182-.6475 4.2725-1.6074a.999.999 0 0 0 .121-.8828Zm-4.4268.4902a4.8704 4.8704 0 0 1-3.7021-1.2881 4.3694 4.3694 0 0 1-1.289-3.0527v-5.5351a.9995.9995 0 0 0-1-1H2.9911v-1.917a6.9544 6.9544 0 0 0 3.8184-5.2051H8v4.0947a.9995.9995 0 0 0 1 1h3.002v1.9053H8.9854a.9995.9995 0 0 0-1 1v5.3642a3.0766 3.0766 0 0 0 .8565 2.2354 2.7662 2.7662 0 0 0 2.0957.7207c.3182-.0122.635-.05.9472-.1133l.4248 1.2588a5.9082 5.9082 0 0 1-2.3028.5322Z" fill="#006AFF"/></svg>