<svg width="23" height="20" fill="none" xmlns="http://www.w3.org/2000/svg"><path d="M22.9914 1.9502a1.0001 1.0001 0 0 0-.5052-.8694.9997.9997 0 0 0-1.0055.01 7.4802 7.4802 0 0 1-1.873.793 5.1526 5.1526 0 0 0-3.374-1.2422A5.2323 5.2323 0 0 0 11.01 5.7051a11.032 11.032 0 0 1-6.8135-3.9238 1.0115 1.0115 0 0 0-.8574-.3653.9985.9985 0 0 0-.7852.5 5.2755 5.2755 0 0 0-.2422 4.7686l-.002.002a1.041 1.041 0 0 0-.495.8886c-.0019.147.007.2938.0263.4394a5.1853 5.1853 0 0 0 1.5684 3.3125.9988.9988 0 0 0-.0664.7696 5.2044 5.2044 0 0 0 2.3623 2.9218 7.4648 7.4648 0 0 1-3.5899.4483.9998.9998 0 0 0-.665 1.833 12.9415 12.9415 0 0 0 7.0098 2.0615A12.7879 12.7879 0 0 0 20.925 9.998a12.8219 12.8219 0 0 0 .5352-3.6464c0-.0655 0-.1328-.001-.2002a5.7698 5.7698 0 0 0 1.5322-4.2012Zm-3.3066 3.212a.9946.9946 0 0 0-.2334.702c.0097.165.0088.331.0088.4874a10.8256 10.8256 0 0 1-.4541 3.081 10.6844 10.6844 0 0 1-10.5459 7.9287 10.9406 10.9406 0 0 1-2.5508-.3007 9.4805 9.4805 0 0 0 2.9424-1.5635 1.001 1.001 0 0 0 .3292-1.1053 1 1 0 0 0-.9308-.6809 3.2078 3.2078 0 0 1-2.2139-.9345 5.0678 5.0678 0 0 0 .4454-.1055 1.0003 1.0003 0 0 0-.0801-1.9434 3.198 3.198 0 0 1-2.25-1.7255c.1807.0246.3626.04.5449.0459a1.021 1.021 0 0 0 .9834-.6963.9998.9998 0 0 0-.4004-1.1367A3.1956 3.1956 0 0 1 3.8557 4.542c0-.0664.002-.1328.0058-.1982a13.0137 13.0137 0 0 0 8.209 3.4795 1.0208 1.0208 0 0 0 .8174-.3584 1.001 1.001 0 0 0 .206-.8682 3.1585 3.1585 0 0 1-.0869-.7285 3.23 3.23 0 0 1 3.2266-3.2266 3.1844 3.1844 0 0 1 2.3447 1.0205.9933.9933 0 0 0 .9209.298 9.2694 9.2694 0 0 0 1.2119-.3224 6.6789 6.6789 0 0 1-1.0263 1.5244Z" fill="#006AFF"/></svg>