<svg width="20" height="17" viewBox="0 0 20 17" fill="none" xmlns="http://www.w3.org/2000/svg">
<path d="M13.4 8.16L8.5 5C8.34798 4.91223 8.17554 4.86603 8 4.86603C7.82446 4.86603 7.65202 4.91223 7.5 5C7.35174 5.08552 7.22791 5.20766 7.14036 5.35474C7.05282 5.50182 7.00449 5.6689 7 5.84V12.16C7.0013 12.3382 7.05019 12.5128 7.14161 12.6658C7.23303 12.8187 7.36367 12.9445 7.52 13.03C7.66543 13.1156 7.83123 13.1605 8 13.16C8.17714 13.1478 8.34869 13.0929 8.5 13L13.4 9.84C13.5403 9.74934 13.6557 9.62497 13.7356 9.47823C13.8155 9.3315 13.8574 9.16708 13.8574 9C13.8574 8.83292 13.8155 8.6685 13.7356 8.52177C13.6557 8.37503 13.5403 8.25066 13.4 8.16ZM9 10.32V7.68L11 9L9 10.32ZM17.38 1.51L15.83 1.31C11.991 0.83996 8.109 0.83996 4.27 1.31L2.72 1.51C1.97471 1.59111 1.2854 1.94387 0.783675 2.50093C0.281954 3.05798 0.0029736 3.78031 0 4.53V13.47C0.00635666 14.2086 0.280506 14.9197 0.771546 15.4715C1.26259 16.0232 1.93715 16.378 2.67 16.47L4.22 16.66C6.13776 16.893 8.06815 17.0066 10 17C11.9323 17 13.8627 16.8797 15.78 16.64L17.33 16.45C18.0628 16.358 18.7374 16.0032 19.2285 15.4515C19.7195 14.8997 19.9936 14.1886 20 13.45V4.53C19.9985 3.78798 19.7265 3.07195 19.235 2.51604C18.7435 1.96012 18.0662 1.60245 17.33 1.51H17.38ZM18.05 13.51C18.0508 13.7619 17.9565 14.0049 17.7859 14.1903C17.6154 14.3757 17.3811 14.4898 17.13 14.51L15.58 14.7C11.9077 15.16 8.19232 15.16 4.52 14.7L2.97 14.51C2.71889 14.4898 2.48463 14.3757 2.31406 14.1903C2.1435 14.0049 2.04919 13.7619 2.05 13.51V4.53C2.06192 4.28195 2.16055 4.04596 2.32869 3.8632C2.49683 3.68044 2.7238 3.56251 2.97 3.53L4.47 3.3C8.14273 2.84665 11.8573 2.84665 15.53 3.3L17.08 3.49C17.3262 3.52251 17.5532 3.64044 17.7213 3.8232C17.8894 4.00596 17.9881 4.24195 18 4.49L18.05 13.51Z" fill="#006AFF"/>
</svg>
